<?xml version="1.0" encoding="UTF-8"?>
<svg xmlns="http://www.w3.org/2000/svg" viewBox="0 0 856.17 352.26">
  <defs>
    <style>
      .cls-1 {
        fill: #fbbf24;
      }

      .cls-2 {
        fill: #4d4182;
      }

      .cls-3 {
        isolation: isolate;
      }

      .cls-4 {
        fill: #22c55e;
      }

      .cls-5 {
        mix-blend-mode: hard-light;
      }
    </style>
  </defs>
  <g class="cls-3">
    <g id="Layer_2" data-name="Layer 2">
      <g id="Layer_5" data-name="Layer 5">
        <g>
          <g class="cls-5">
            <path class="cls-4" d="M461.74,326.09c-13.2-11.92-26.39-24.42-39.58-37.5-13.2-13.09-26.39-24.95-39.58-35.59,12.98-10.21,25.32-20.59,37.02-31.12,11.7-10.53,22.87-21.23,33.51-32.08-23.41.43-48.89,1.01-76.44,1.75-27.56.75-55.81,1.71-84.74,2.87-28.94,1.17-57.35,2.45-85.22,3.83-27.88,1.39-54.05,2.98-78.52,4.79-24.47,1.81-46.07,3.73-64.79,5.75-18.73,2.03-33.19,4.2-43.41,6.54,5.53-22.98,5.53-45.96,0-68.94,8.72,1.91,17.55,3.62,26.49,5.11,8.94,1.49,17.76,2.77,26.49,3.83,8.51-11.91,17.08-24.31,25.69-37.18,8.62-12.87,16.38-25.32,23.3-37.34,6.91-12.02,11.97-22.71,15.16-32.08,11.28,13.41,24.26,24.26,38.94,32.56-11.49,5.96-24.95,15.64-40.38,29.04-15.43,13.41-32.08,28.94-49.95,46.6l25.85,2.55c7.45-8.08,14.41-16.92,20.91-26.49,6.49-9.58,11.75-19.57,15.8-30,6.81,10.21,15.43,19.05,25.85,26.49-9.79,3.83-18.94,8.35-27.45,13.56-8.51,5.22-16.49,11.01-23.94,17.4,19.57,1.71,39.15,3.3,58.73,4.79,19.57,1.49,39.15,2.98,58.73,4.47-11.71-11.06-23.57-21.38-35.59-30.96-12.02-9.58-25.8-17.34-41.33-23.3,5.11-3.83,9.84-7.92,14.2-12.29,4.36-4.36,8.24-9.1,11.65-14.2,2.76,8.09,7.13,16.76,13.09,26.01,5.95,9.26,13.03,18.62,21.23,28.09,8.19,9.47,16.76,18.57,25.69,27.29l27.45,1.6c-7.45-7.66-15.75-16.12-24.9-25.37-9.15-9.26-18.57-18.67-28.25-28.25-9.69-9.58-19.15-18.67-28.41-27.29-9.26-8.62-17.93-16.22-26.01-22.82-8.09-6.59-15-11.38-20.75-14.36,14.68-8.08,27.66-18.94,38.94-32.56,2.98,8.09,8.03,18.14,15.16,30.16,7.13,12.02,15.48,24.95,25.06,38.78,9.58,13.83,19.57,27.88,30,42.13,10.42,14.26,20.32,27.66,29.68,40.22,27.23,1.49,54.52,2.87,81.87,4.15,27.34,1.28,54.63,2.23,81.87,2.87-11.28-10.64-22.66-21.7-34.15-33.19-11.49-11.49-22.88-21.59-34.15-30.32,15.32-12.13,29.63-24.26,42.93-36.39,13.3-12.13,25.37-24.26,36.23-36.39l7.66,4.15-39.58,68.62,39.58,68.62-39.58,68.3,39.58,68.62-7.66,4.47Z"/>
            <path class="cls-4" d="M682.54,352.26l-5.11-4.79c-6.6-6.38-14.63-13.99-24.1-22.82-9.47-8.83-19.68-18.3-30.64-28.41-10.96-10.11-22.02-20.16-33.19-30.16-11.17-10-21.92-19.36-32.24-28.09-10.32-8.72-19.68-16.22-28.09-22.5-8.41-6.27-15.16-10.69-20.27-13.25,7.02-4.04,13.41-8.46,19.15-13.25,5.75-4.79,11.38-10.58,16.92-17.4l-2.55,2.23-5.11-4.79c6.59-8.3,14.41-17.92,23.46-28.89,9.04-10.96,18.4-22.34,28.09-34.15,9.68-11.81,18.83-23.3,27.45-34.47,8.62-11.17,16.01-21.27,22.18-30.32,6.17-9.04,10.21-16.12,12.13-21.23,9.78,12.56,20.32,22.34,31.6,29.36,11.28-6.81,21.91-16.6,31.92-29.36,1.92,5.11,5.95,12.18,12.13,21.23,6.17,9.05,13.57,19.15,22.18,30.32,8.62,11.17,17.76,22.66,27.45,34.47,9.68,11.81,19.04,23.19,28.09,34.15,9.04,10.96,16.86,20.59,23.46,28.89l-5.11,4.79-.96-.64c5.53,6.38,11.06,11.87,16.6,16.44,5.53,4.58,11.59,8.78,18.19,12.61-5.11,2.55-11.97,7.08-20.59,13.57-8.62,6.49-18.3,14.31-29.04,23.46-10.75,9.15-21.92,18.94-33.51,29.36-11.6,10.43-23.09,20.8-34.47,31.12-11.38,10.32-21.86,20.05-31.44,29.2-9.58,9.15-17.77,16.92-24.58,23.3ZM681.9,341.73c7.45-9.15,16.7-20.22,27.77-33.19,11.06-12.98,22.45-26.38,34.15-40.22-12.34,1.28-24.74,2.87-37.18,4.79s-23.78,3.99-33.99,6.22-18.51,4.63-24.9,7.18c1.28-6.81,1.92-14.47,1.92-22.98s-.64-15.64-1.92-22.66c5.75,2.34,14.25,4.63,25.53,6.86,11.28,2.23,23.88,4.31,37.82,6.22,13.93,1.92,27.61,3.41,41.01,4.47,5.53-6.81,11.01-13.51,16.44-20.11,5.43-6.59,10.48-12.98,15.16-19.15-12.34,1.07-25.37,2.29-39.1,3.67-13.72,1.39-27.08,2.87-40.06,4.47-12.98,1.6-24.47,3.3-34.47,5.11-10,1.81-17.45,3.67-22.34,5.59,1.28-6.81,1.92-14.47,1.92-22.98s-.64-15.64-1.92-22.66c4.25,1.71,11.7,3.46,22.34,5.27,10.64,1.81,22.98,3.46,37.02,4.95,14.04,1.49,28.46,2.87,43.25,4.15,14.79,1.28,28.35,2.34,40.7,3.19,6.81-8.72,12.66-16.6,17.55-23.62,4.89-7.02,8.08-12.45,9.58-16.28l-2.55-2.23c-8.94.85-19.63,1.81-32.08,2.87-12.45,1.07-25.53,2.29-39.26,3.67-13.72,1.39-27.02,2.87-39.9,4.47-12.88,1.6-24.31,3.25-34.31,4.95-10,1.71-17.45,3.51-22.34,5.43,1.28-6.81,1.92-14.47,1.92-22.98s-.64-15.64-1.92-22.66c3.83,1.49,10.37,3.03,19.63,4.63,9.26,1.6,20.05,3.14,32.4,4.63,12.34,1.49,25.21,2.87,38.62,4.15s26.38,2.34,38.94,3.19c12.55.85,23.4,1.49,32.56,1.92-6.81-6.38-14.15-13.09-22.02-20.11-7.87-7.02-15.85-14.15-23.94-21.38-14.04,1.49-28.68,3.25-43.89,5.27-15.22,2.02-29.2,4.26-41.97,6.7-12.77,2.45-22.88,5.16-30.32,8.14,1.28-6.81,1.92-14.47,1.92-22.98s-.64-15.64-1.92-22.66c4.25,1.71,10.26,3.46,18.03,5.27,7.77,1.81,16.65,3.46,26.65,4.95,10,1.49,20.37,2.87,31.12,4.15,10.74,1.28,21.23,2.34,31.44,3.19-13.62-11.91-26.92-22.98-39.9-33.19-12.98-10.21-23.94-17.87-32.88-22.98-8.09,4.68-17.82,11.49-29.2,20.43-11.39,8.94-23.46,18.89-36.23,29.84-12.77,10.96-25.27,21.97-37.5,33.03-12.24,11.07-23.14,21.17-32.71,30.32,1.7,4.26,5.43,10.48,11.17,18.67,5.75,8.19,12.77,17.55,21.07,28.09,8.3,10.53,17.24,21.6,26.81,33.19,9.58,11.6,19.1,23.09,28.57,34.47,9.46,11.38,18.4,22.02,26.81,31.92,8.4,9.89,15.37,18.35,20.91,25.38Z"/>
          </g>
          <g class="cls-5">
            <path class="cls-2" d="M441.74,306.09c-13.2-11.92-26.39-24.42-39.58-37.5-13.2-13.09-26.39-24.95-39.58-35.59,12.98-10.21,25.32-20.59,37.02-31.12,11.7-10.53,22.87-21.23,33.51-32.08-23.41.43-48.89,1.01-76.44,1.75-27.56.75-55.81,1.71-84.74,2.87-28.94,1.17-57.35,2.45-85.22,3.83-27.88,1.39-54.05,2.98-78.52,4.79-24.47,1.81-46.07,3.73-64.79,5.75-18.73,2.03-33.19,4.2-43.41,6.54,5.53-22.98,5.53-45.96,0-68.94,8.72,1.91,17.55,3.62,26.49,5.11,8.94,1.49,17.76,2.77,26.49,3.83,8.51-11.91,17.08-24.31,25.69-37.18,8.62-12.87,16.38-25.32,23.3-37.34,6.91-12.02,11.97-22.71,15.16-32.08,11.28,13.41,24.26,24.26,38.94,32.56-11.49,5.96-24.95,15.64-40.38,29.04-15.43,13.41-32.08,28.94-49.95,46.6l25.85,2.55c7.45-8.08,14.41-16.92,20.91-26.49,6.49-9.58,11.75-19.57,15.8-30,6.81,10.21,15.43,19.05,25.85,26.49-9.79,3.83-18.94,8.35-27.45,13.56-8.51,5.22-16.49,11.01-23.94,17.4,19.57,1.71,39.15,3.3,58.73,4.79,19.57,1.49,39.15,2.98,58.73,4.47-11.71-11.06-23.57-21.38-35.59-30.96-12.02-9.58-25.8-17.34-41.33-23.3,5.11-3.83,9.84-7.92,14.2-12.29,4.36-4.36,8.24-9.1,11.65-14.2,2.76,8.09,7.13,16.76,13.09,26.01,5.95,9.26,13.03,18.62,21.23,28.09,8.19,9.47,16.76,18.57,25.69,27.29l27.45,1.6c-7.45-7.66-15.75-16.12-24.9-25.37-9.15-9.26-18.57-18.67-28.25-28.25-9.69-9.58-19.15-18.67-28.41-27.29-9.26-8.62-17.93-16.22-26.01-22.82-8.09-6.59-15-11.38-20.75-14.36,14.68-8.08,27.66-18.94,38.94-32.56,2.98,8.09,8.03,18.14,15.16,30.16,7.13,12.02,15.48,24.95,25.06,38.78,9.58,13.83,19.57,27.88,30,42.13,10.42,14.26,20.32,27.66,29.68,40.22,27.23,1.49,54.52,2.87,81.87,4.15,27.34,1.28,54.63,2.23,81.87,2.87-11.28-10.64-22.66-21.7-34.15-33.19-11.49-11.49-22.88-21.59-34.15-30.32,15.32-12.13,29.63-24.26,42.93-36.39,13.3-12.13,25.37-24.26,36.23-36.39l7.66,4.15-39.58,68.62,39.58,68.62-39.58,68.3,39.58,68.62-7.66,4.47Z"/>
            <path class="cls-2" d="M662.54,332.26l-5.11-4.79c-6.6-6.38-14.63-13.99-24.1-22.82-9.47-8.83-19.68-18.3-30.64-28.41-10.96-10.11-22.02-20.16-33.19-30.16-11.17-10-21.92-19.36-32.24-28.09-10.32-8.72-19.68-16.22-28.09-22.5-8.41-6.27-15.16-10.69-20.27-13.25,7.02-4.04,13.41-8.46,19.15-13.25,5.75-4.79,11.38-10.58,16.92-17.4l-2.55,2.23-5.11-4.79c6.59-8.3,14.41-17.92,23.46-28.89,9.04-10.96,18.4-22.34,28.09-34.15,9.68-11.81,18.83-23.3,27.45-34.47,8.62-11.17,16.01-21.27,22.18-30.32,6.17-9.04,10.21-16.12,12.13-21.23,9.78,12.56,20.32,22.34,31.6,29.36,11.28-6.81,21.91-16.6,31.92-29.36,1.92,5.11,5.95,12.18,12.13,21.23,6.17,9.05,13.57,19.15,22.18,30.32,8.62,11.17,17.76,22.66,27.45,34.47,9.68,11.81,19.04,23.19,28.09,34.15,9.04,10.96,16.86,20.59,23.46,28.89l-5.11,4.79-.96-.64c5.53,6.38,11.06,11.87,16.6,16.44,5.53,4.58,11.59,8.78,18.19,12.61-5.11,2.55-11.97,7.08-20.59,13.57-8.62,6.49-18.3,14.31-29.04,23.46-10.75,9.15-21.92,18.94-33.51,29.36-11.6,10.43-23.09,20.8-34.47,31.12-11.38,10.32-21.86,20.05-31.44,29.2-9.58,9.15-17.77,16.92-24.58,23.3ZM661.9,321.73c7.45-9.15,16.7-20.22,27.77-33.19,11.06-12.98,22.45-26.38,34.15-40.22-12.34,1.28-24.74,2.87-37.18,4.79s-23.78,3.99-33.99,6.22-18.51,4.63-24.9,7.18c1.28-6.81,1.92-14.47,1.92-22.98s-.64-15.64-1.92-22.66c5.75,2.34,14.25,4.63,25.53,6.86,11.28,2.23,23.88,4.31,37.82,6.22,13.93,1.92,27.61,3.41,41.01,4.47,5.53-6.81,11.01-13.51,16.44-20.11,5.43-6.59,10.48-12.98,15.16-19.15-12.34,1.07-25.37,2.29-39.1,3.67-13.72,1.39-27.08,2.87-40.06,4.47-12.98,1.6-24.47,3.3-34.47,5.11-10,1.81-17.45,3.67-22.34,5.59,1.28-6.81,1.92-14.47,1.92-22.98s-.64-15.64-1.92-22.66c4.25,1.71,11.7,3.46,22.34,5.27,10.64,1.81,22.98,3.46,37.02,4.95,14.04,1.49,28.46,2.87,43.25,4.15,14.79,1.28,28.35,2.34,40.7,3.19,6.81-8.72,12.66-16.6,17.55-23.62,4.89-7.02,8.08-12.45,9.58-16.28l-2.55-2.23c-8.94.85-19.63,1.81-32.08,2.87-12.45,1.07-25.53,2.29-39.26,3.67-13.72,1.39-27.02,2.87-39.9,4.47-12.88,1.6-24.31,3.25-34.31,4.95-10,1.71-17.45,3.51-22.34,5.43,1.28-6.81,1.92-14.47,1.92-22.98s-.64-15.64-1.92-22.66c3.83,1.49,10.37,3.03,19.63,4.63,9.26,1.6,20.05,3.14,32.4,4.63,12.34,1.49,25.21,2.87,38.62,4.15s26.38,2.34,38.94,3.19c12.55.85,23.4,1.49,32.56,1.92-6.81-6.38-14.15-13.09-22.02-20.11-7.87-7.02-15.85-14.15-23.94-21.38-14.04,1.49-28.68,3.25-43.89,5.27-15.22,2.02-29.2,4.26-41.97,6.7-12.77,2.45-22.88,5.16-30.32,8.14,1.28-6.81,1.92-14.47,1.92-22.98s-.64-15.64-1.92-22.66c4.25,1.71,10.26,3.46,18.03,5.27,7.77,1.81,16.65,3.46,26.65,4.95,10,1.49,20.37,2.87,31.12,4.15,10.74,1.28,21.23,2.34,31.44,3.19-13.62-11.91-26.92-22.98-39.9-33.19-12.98-10.21-23.94-17.87-32.88-22.98-8.09,4.68-17.82,11.49-29.2,20.43-11.39,8.94-23.46,18.89-36.23,29.84-12.77,10.96-25.27,21.97-37.5,33.03-12.24,11.07-23.14,21.17-32.71,30.32,1.7,4.26,5.43,10.48,11.17,18.67,5.75,8.19,12.77,17.55,21.07,28.09,8.3,10.53,17.24,21.6,26.81,33.19,9.58,11.6,19.1,23.09,28.57,34.47,9.46,11.38,18.4,22.02,26.81,31.92,8.4,9.89,15.37,18.35,20.91,25.38Z"/>
          </g>
          <g class="cls-5">
            <path class="cls-1" d="M451.74,316.09c-13.2-11.92-26.39-24.42-39.58-37.5-13.2-13.09-26.39-24.95-39.58-35.59,12.98-10.21,25.32-20.59,37.02-31.12,11.7-10.53,22.87-21.23,33.51-32.08-23.41.43-48.89,1.01-76.44,1.75-27.56.75-55.81,1.71-84.74,2.87-28.94,1.17-57.35,2.45-85.22,3.83-27.88,1.39-54.05,2.98-78.52,4.79-24.47,1.81-46.07,3.73-64.79,5.75-18.73,2.03-33.19,4.2-43.41,6.54,5.53-22.98,5.53-45.96,0-68.94,8.72,1.91,17.55,3.62,26.49,5.11,8.94,1.49,17.76,2.77,26.49,3.83,8.51-11.91,17.08-24.31,25.69-37.18,8.62-12.87,16.38-25.32,23.3-37.34,6.91-12.02,11.97-22.71,15.16-32.08,11.28,13.41,24.26,24.26,38.94,32.56-11.49,5.96-24.95,15.64-40.38,29.04-15.43,13.41-32.08,28.94-49.95,46.6l25.85,2.55c7.45-8.08,14.41-16.92,20.91-26.49,6.49-9.58,11.75-19.57,15.8-30,6.81,10.21,15.43,19.05,25.85,26.49-9.79,3.83-18.94,8.35-27.45,13.56-8.51,5.22-16.49,11.01-23.94,17.4,19.57,1.71,39.15,3.3,58.73,4.79,19.57,1.49,39.15,2.98,58.73,4.47-11.71-11.06-23.57-21.38-35.59-30.96-12.02-9.58-25.8-17.34-41.33-23.3,5.11-3.83,9.84-7.92,14.2-12.29,4.36-4.36,8.24-9.1,11.65-14.2,2.76,8.09,7.13,16.76,13.09,26.01,5.95,9.26,13.03,18.62,21.23,28.09,8.19,9.47,16.76,18.57,25.69,27.29l27.45,1.6c-7.45-7.66-15.75-16.12-24.9-25.37-9.15-9.26-18.57-18.67-28.25-28.25-9.69-9.58-19.15-18.67-28.41-27.29-9.26-8.62-17.93-16.22-26.01-22.82-8.09-6.59-15-11.38-20.75-14.36,14.68-8.08,27.66-18.94,38.94-32.56,2.98,8.09,8.03,18.14,15.16,30.16,7.13,12.02,15.48,24.95,25.06,38.78,9.58,13.83,19.57,27.88,30,42.13,10.42,14.26,20.32,27.66,29.68,40.22,27.23,1.49,54.52,2.87,81.87,4.15,27.34,1.28,54.63,2.23,81.87,2.87-11.28-10.64-22.66-21.7-34.15-33.19-11.49-11.49-22.88-21.59-34.15-30.32,15.32-12.13,29.63-24.26,42.93-36.39,13.3-12.13,25.37-24.26,36.23-36.39l7.66,4.15-39.58,68.62,39.58,68.62-39.58,68.3,39.58,68.62-7.66,4.47Z"/>
            <path class="cls-1" d="M672.54,342.26l-5.11-4.79c-6.6-6.38-14.63-13.99-24.1-22.82-9.47-8.83-19.68-18.3-30.64-28.41-10.96-10.11-22.02-20.16-33.19-30.16-11.17-10-21.92-19.36-32.24-28.09-10.32-8.72-19.68-16.22-28.09-22.5-8.41-6.27-15.16-10.69-20.27-13.25,7.02-4.04,13.41-8.46,19.15-13.25,5.75-4.79,11.38-10.58,16.92-17.4l-2.55,2.23-5.11-4.79c6.59-8.3,14.41-17.92,23.46-28.89,9.04-10.96,18.4-22.34,28.09-34.15,9.68-11.81,18.83-23.3,27.45-34.47,8.62-11.17,16.01-21.27,22.18-30.32,6.17-9.04,10.21-16.12,12.13-21.23,9.78,12.56,20.32,22.34,31.6,29.36,11.28-6.81,21.91-16.6,31.92-29.36,1.92,5.11,5.95,12.18,12.13,21.23,6.17,9.05,13.57,19.15,22.18,30.32,8.62,11.17,17.76,22.66,27.45,34.47,9.68,11.81,19.04,23.19,28.09,34.15,9.04,10.96,16.86,20.59,23.46,28.89l-5.11,4.79-.96-.64c5.53,6.38,11.06,11.87,16.6,16.44,5.53,4.58,11.59,8.78,18.19,12.61-5.11,2.55-11.97,7.08-20.59,13.57-8.62,6.49-18.3,14.31-29.04,23.46-10.75,9.15-21.92,18.94-33.51,29.36-11.6,10.43-23.09,20.8-34.47,31.12-11.38,10.32-21.86,20.05-31.44,29.2-9.58,9.15-17.77,16.92-24.58,23.3ZM671.9,331.73c7.45-9.15,16.7-20.22,27.77-33.19,11.06-12.98,22.45-26.38,34.15-40.22-12.34,1.28-24.74,2.87-37.18,4.79s-23.78,3.99-33.99,6.22-18.51,4.63-24.9,7.18c1.28-6.81,1.92-14.47,1.92-22.98s-.64-15.64-1.92-22.66c5.75,2.34,14.25,4.63,25.53,6.86,11.28,2.23,23.88,4.31,37.82,6.22,13.93,1.92,27.61,3.41,41.01,4.47,5.53-6.81,11.01-13.51,16.44-20.11,5.43-6.59,10.48-12.98,15.16-19.15-12.34,1.07-25.37,2.29-39.1,3.67-13.72,1.39-27.08,2.87-40.06,4.47-12.98,1.6-24.47,3.3-34.47,5.11-10,1.81-17.45,3.67-22.34,5.59,1.28-6.81,1.92-14.47,1.92-22.98s-.64-15.64-1.92-22.66c4.25,1.71,11.7,3.46,22.34,5.27,10.64,1.81,22.98,3.46,37.02,4.95,14.04,1.49,28.46,2.87,43.25,4.15,14.79,1.28,28.35,2.34,40.7,3.19,6.81-8.72,12.66-16.6,17.55-23.62,4.89-7.02,8.08-12.45,9.58-16.28l-2.55-2.23c-8.94.85-19.63,1.81-32.08,2.87-12.45,1.07-25.53,2.29-39.26,3.67-13.72,1.39-27.02,2.87-39.9,4.47-12.88,1.6-24.31,3.25-34.31,4.95-10,1.71-17.45,3.51-22.34,5.43,1.28-6.81,1.92-14.47,1.92-22.98s-.64-15.64-1.92-22.66c3.83,1.49,10.37,3.03,19.63,4.63,9.26,1.6,20.05,3.14,32.4,4.63,12.34,1.49,25.21,2.87,38.62,4.15s26.38,2.34,38.94,3.19c12.55.85,23.4,1.49,32.56,1.92-6.81-6.38-14.15-13.09-22.02-20.11-7.87-7.02-15.85-14.15-23.94-21.38-14.04,1.49-28.68,3.25-43.89,5.27-15.22,2.02-29.2,4.26-41.97,6.7-12.77,2.45-22.88,5.16-30.32,8.14,1.28-6.81,1.92-14.47,1.92-22.98s-.64-15.64-1.92-22.66c4.25,1.71,10.26,3.46,18.03,5.27,7.77,1.81,16.65,3.46,26.65,4.95,10,1.49,20.37,2.87,31.12,4.15,10.74,1.28,21.23,2.34,31.44,3.19-13.62-11.91-26.92-22.98-39.9-33.19-12.98-10.21-23.94-17.87-32.88-22.98-8.09,4.68-17.82,11.49-29.2,20.43-11.39,8.94-23.46,18.89-36.23,29.84-12.77,10.96-25.27,21.97-37.5,33.03-12.24,11.07-23.14,21.17-32.71,30.32,1.7,4.26,5.43,10.48,11.17,18.67,5.75,8.19,12.77,17.55,21.07,28.09,8.3,10.53,17.24,21.6,26.81,33.19,9.58,11.6,19.1,23.09,28.57,34.47,9.46,11.38,18.4,22.02,26.81,31.92,8.4,9.89,15.37,18.35,20.91,25.38Z"/>
          </g>
        </g>
      </g>
    </g>
  </g>
</svg>